<?xml version="1.0" encoding="UTF-8"?><svg id="Layer_1" xmlns="http://www.w3.org/2000/svg" viewBox="0 0 92 212.35"><defs><style>.cls-1{fill:#35324f;}.cls-2{fill:#202035;stroke:#35324f;stroke-miterlimit:10;stroke-width:2px;}</style></defs><polygon class="cls-2" points="91 1.68 1 50.68 1 210.68 91 162.68 91 1.68"/><path class="cls-1" d="M62.6,103.68s-.08-3.52-3.49-6.96c-3.41-3.44-4.66-6.93-4.66-6.93l4.6-20.45,.77-.61,.92-2.37-.58,.21-.07-3.13,1.34-1.4h.59l.36-1.39-.59-.18,.18-.79h-.39l.37-.98-2.17-.73-.37,.99-.4-.19-.37,.79-.78,.02-.36,1.18,.8,.57,.43,1.75-1.89,2.78-.4-.38-.34,1.96,.22,.97-6.17,20.1c-1.34,1.4-8.71,3.92-8.71,3.92,0,0-3.3,1.25-5.58,4.05s-1.92,9.63-1.92,9.63c5.46,1.94,2.46,7.71,1.15,9.79-.37,.58-.85,1.08-1.43,1.44-.49,.31-1.12,.63-1.78,.75-1.28,.23-2.65-.47-2.95-.52-5.46,8.74-5.18,12.45-5.18,12.45,0,0-.67,4.51,2.56,8.74,3.23,4.23,7.86,5.58,9.05,6.14,1.19,.56,1.21,1.34,1.21,1.34l-.69,3.93,1.78-3.47s.36-1.18,1.74-.82c1.38,.36,5.5,.85,5.5,.85,7.22-.56,10.27-3.96,11.98-6.35,1.7-2.39,2.6-13.95,1.8-14.71,0,0-2.03-.76-2.97-1.49-.45-.35-.83-.76-1.14-1.15-.6-.76-.91-1.71-.87-2.68,.32-9.25,6.63-7.43,6.63-7.43,3.2-5.16,2.32-9.25,2.32-9.25Zm-18.64,10.3c-.84-.24-1.43-1.26-.04-1.55,0,0,.26-.78-.86-1.01-1.12-.23-2.18,2.12-2.18,2.12,0,0-1.31,3.65-1.56,4.95-.25,1.3-1.58,4.18-2.12,4.71s-1.91,1.86-4.72,1.15-1.19-3.08-1.19-3.08c0,0,.81-1.05,1.95-.31,1.14,.75,.06,2.59-1.07,1.84,0,0,.02,1.03,1.14,1.01,1.12-.03,2.49-.84,3.02-2.4,.52-1.56,2.89-7.57,2.89-7.57,0,0,1.33-2.88,3.56-2.93,2.23-.05,2.29,2.27,2.29,2.27,0,0-.25,1.04-1.1,.8Zm7.19,15.51c-2.69-.63-3.18-2.43-3.37-3.15-.2-.72,.1-3.9,.53-5.18,.43-1.28,1.12-5.15,1.12-5.15,0,0,.26-2.59-.78-2.89-1.05-.3-1.21,.52-1.21,.52,1.02,.89,.03,1.54-.79,1.38-.82-.16-.52-1.21-.52-1.21,0,0,1.18-2.06,3.02-1.01,1.84,1.05,1.54,4.23,1.54,4.23,0,0-.96,6.46-1.29,8.1-.33,1.64,.42,2.98,1.34,3.51,.92,.53,1.44-.39,1.44-.39-1.31,.16-1.31-1.97,0-2.13s1.47,1.15,1.47,1.15c0,0,.19,2.85-2.49,2.23Z"/></svg>