<?xml version="1.0" encoding="UTF-8"?><svg id="Layer_1" xmlns="http://www.w3.org/2000/svg" viewBox="0 0 16 16"><defs><style>.cls-1{fill:#f39b13;}</style></defs><path class="cls-1" d="M2,10.59s-.5-.56,.44-1.37,1.43-.87,1.75-.75,.31,.56,.06,1l.53,1.59,.56,2.74s0,.19,.12,.19,.19-.12,.19-.44-1.07-8.46-1.07-8.46l-.25-1.78c-.04-.27,.09-.53,.33-.66L14.3,.5l.7,2.82-1.41,.28s0-1.27-.85-1.13c-.28,.05-6.79,1.53-6.77,1.69l.28,1.97,4.51-1.13,.42,1.69s-.56-.56-2.54-.14c0,0-2.26,.56-2.11,2.68l.56,3.67s.54,2.01-1.02,2.57-1.99-.87-1.99-.87c0,0-.25-1.37-.31-1.75s-.31-1.99-1.12-2.18c0,0-.44,.06-.65-.09Z"/></svg>