<?xml version="1.0" encoding="UTF-8"?><svg id="Layer_1" xmlns="http://www.w3.org/2000/svg" viewBox="0 0 493 216"><defs><style>.cls-1{fill:#35324f;}.cls-2{fill:#202035;stroke:#35324f;stroke-miterlimit:10;stroke-width:2px;}</style></defs><polygon class="cls-2" points="92.5 3.5 2.5 52.5 2.5 212.5 92.5 164.5 92.5 3.5"/><polygon class="cls-2" points="301 3.5 391 52.5 391 212.5 301 164.5 301 3.5"/><path class="cls-1" d="M352.34,68.53l-.15-.27c-.06-.11-.17-.17-.29-.17-.44,.02-1.58-.06-2.48-1.24-.08-.11-.22-.16-.35-.12l-4.47,1.38c-.15,.05-.24,.19-.22,.35l.02,.13c.02,.16-.08,.31-.23,.35-.84,.22-3.42,.87-5.06,1-1.88,.15-3.38,1.31-3.52,1.42l-.02,.02c-.15,.14-1.99,1.93-2.41,4.07s-.92,4.48,2.43,12.66l3.07,8.33c.06,.17-.02,.35-.19,.41l-1,.37c-.17,.06-.25,.25-.19,.41l1.6,4.24c.06,.16,.25,.25,.41,.19l.95-.35c.17-.06,.35,.02,.41,.19l1.04,2.86c.06,.17-.02,.35-.19,.41l-1.16,.43c-.17,.06-.25,.25-.19,.41l1.6,4.24c.06,.16,.25,.25,.41,.19l1.1-.41c.17-.06,.35,.02,.41,.19l1.24,3.42c.06,.17-.02,.35-.19,.41l-1.22,.45c-.17,.06-.25,.25-.19,.41l1.6,4.24c.06,.16,.25,.25,.41,.19l1.15-.43c.17-.06,.35,.02,.41,.19l3.54,9.67,2.64,7.54s.01,.03,.02,.04c.11,.22,1.19,2.36-.7,2.56h-.07c-1.53,.16-3-.66-3.7-2.03s-1.86-3.31-2.52-5.33c-1.18-3.6-5.12-10.12-7.6-12.41-1.04-.96-3.28-2.49-4.43-2.96-1.32-.54-2.31-1.67-2.67-3.06l-2.02-7.69c-.08-.39-.63-.42-.74-.04l-.98,3.15c-.02,.06-.03,.11-.05,.17l-1.22,5.08-1.54,7.28c-.05,.24-.09,.49-.12,.73l-.97,7.86c-.05,.43-.09,.85-.11,1.28l-.19,3.41c-.04,.7,.85,1.02,1.27,.46,2.29-3.07,6.85-8.24,9.68-5.24,4.57,4.87,6.52,11.62,8.04,13.94s3.08,5.65,9.69,4.17c6.43-1.44,9.31-6.87,9.47-7.17v-.03c.09-.19,.88-2.24,.13-5.12-.79-3.03-7.58-18.97-7.58-18.97l-12.02-26.25-5.06-11.15s-1.49-3.04,1.56-5.43c0,0,1.27-1.02,5.75-2.51,.19-.06,.39,.06,.42,.26h0c.03,.2,.24,.33,.43,.26l6.96-2.61c.18-.07,.26-.28,.17-.45Z"/><polygon class="cls-2" points="291.5 3.5 201.5 52.5 201.5 212.5 291.5 164.5 291.5 3.5"/><polygon class="cls-2" points="490.5 3.5 400.5 52.5 400.5 212.5 490.5 164.5 490.5 3.5"/><path class="cls-1" d="M463.1,109.49s-.08-3.52-3.49-6.96c-3.41-3.44-4.66-6.93-4.66-6.93l4.6-20.45,.77-.61,.92-2.37-.58,.21-.07-3.13,1.34-1.4h.59l.36-1.39-.59-.18,.18-.79h-.39l.37-.98-2.17-.73-.37,.99-.4-.19-.37,.79-.78,.02-.36,1.18,.8,.57,.43,1.75-1.89,2.78-.4-.38-.34,1.96,.22,.97-6.17,20.1c-1.34,1.4-8.71,3.92-8.71,3.92,0,0-3.3,1.25-5.58,4.05s-1.92,9.63-1.92,9.63c5.46,1.94,2.46,7.71,1.15,9.79-.37,.58-.85,1.08-1.43,1.44-.49,.31-1.12,.63-1.78,.75-1.28,.23-2.65-.47-2.95-.52-5.46,8.74-5.18,12.45-5.18,12.45,0,0-.67,4.51,2.56,8.74,3.23,4.23,7.86,5.58,9.05,6.14,1.19,.56,1.21,1.34,1.21,1.34l-.69,3.93,1.78-3.47s.36-1.18,1.74-.82c1.38,.36,5.5,.85,5.5,.85,7.22-.56,10.27-3.96,11.98-6.35,1.7-2.39,2.6-13.95,1.8-14.71,0,0-2.03-.76-2.97-1.49-.45-.35-.83-.76-1.14-1.15-.6-.76-.91-1.71-.87-2.68,.32-9.25,6.63-7.43,6.63-7.43,3.2-5.16,2.32-9.25,2.32-9.25Zm-18.64,10.3c-.84-.24-1.43-1.26-.04-1.55,0,0,.26-.78-.86-1.01-1.12-.23-2.18,2.12-2.18,2.12,0,0-1.31,3.65-1.56,4.95-.25,1.3-1.58,4.18-2.12,4.71s-1.91,1.86-4.72,1.15-1.19-3.08-1.19-3.08c0,0,.81-1.05,1.95-.31,1.14,.75,.06,2.59-1.07,1.84,0,0,.02,1.03,1.14,1.01,1.12-.03,2.49-.84,3.02-2.4,.52-1.56,2.89-7.57,2.89-7.57,0,0,1.33-2.88,3.56-2.93,2.23-.05,2.29,2.27,2.29,2.27,0,0-.25,1.04-1.1,.8Zm7.19,15.51c-2.69-.63-3.18-2.43-3.37-3.15-.2-.72,.1-3.9,.53-5.18,.43-1.28,1.12-5.15,1.12-5.15,0,0,.26-2.59-.78-2.89-1.05-.3-1.21,.52-1.21,.52,1.02,.89,.03,1.54-.79,1.38-.82-.16-.52-1.21-.52-1.21,0,0,1.18-2.06,3.02-1.01,1.84,1.05,1.54,4.23,1.54,4.23,0,0-.96,6.46-1.29,8.1-.33,1.64,.42,2.98,1.34,3.51,.92,.53,1.44-.39,1.44-.39-1.31,.16-1.31-1.97,0-2.13s1.47,1.15,1.47,1.15c0,0,.19,2.85-2.49,2.23Z"/><polygon class="cls-2" points="102 3.5 192 52.5 192 212.5 102 164.5 102 3.5"/><path class="cls-1" d="M159.72,92.8c7.67-4.52,15.84-2.56,15.84-2.56-8.45-12.04-18.76-18.52-18.76-18.52,2.18,7.84-1.84,16.73-1.84,16.73l.56,.54-13.89,14-1.96-1.91s.82-.56-.02-1.38-2.19,1.13-2.19,1.13c0,0-1.64,1.4-.8,1.94s1.38-.02,1.38-.02l1.96,2.18-1.63,1.68-2.24-2.18s.82-.84-.02-1.38-2.19,1.13-2.19,1.13c0,0-1.63,1.68-.8,2.22s1.38-.02,1.38-.02l1.96,2.18-1.36,1.68-2.24-2.18c.27-.56,.26-1.11-.3-1.38s-1.1,.29-1.92,1.13-1.64,1.4-1.08,1.95,1.38,.26,1.38,.26l2.24,1.9-15.52,15.95c-1.39-.81-1.92,.85-1.92,.85l4.76,4.63,.82-.56c.54-.84-.57-1.65-.57-1.65l5.72-5.88c.31,2.21,1.44,4.12,1.44,4.12,0,0,3.38,4.92,9.46,4.84,6.07-.08,8.51-3.98,8.51-3.98l8.98-9.51c9.54-9.24,9.24-10.62,9.76-13.39,.51-2.77-.36-5.79-2.32-8.25s-6.68-3.5-6.68-3.5l3.54-3.36,.56,.54Zm-4.14,20.49l-5.99,6.16-4.63,4.76s-.82,.56-1.93,.58c0,0-3.32-.23-3.36-3.27-.04-3.04,2.42-4.45,5.42-7.53,3-3.08,4.89-6.14,7.37-6.18s3.63,2.71,3.63,2.71c0,0,.3,1.93-.51,2.77Zm2.05-11.9c3.91,2.98,1.77,7.98,.95,8.82,0,0-.9-4.96-6.14-4.89,0,0-2.22-.52-6.03,3.67-3.81,4.19-6.54,6.72-6.54,6.72,0,0-3,2.53-3.24,5.57-.23,3.04,2.29,6.04,5.33,6,0,0-1.62,2.51-4.94,2.28s-6.11-2.68-6.16-6.27,7.32-9.77,7.32-9.77l11.44-11.76s4.1-3.37,8-.39Z"/><path class="cls-1" d="M258.99,118.54s-.87-4.06-2.9-5.8-2.9-2.46-6.38-2.9c0,0-1.88-.14-2.9,.14l-.87-6.81,4.64-5.65s3.77-5.07,4.49-9.28,.29-6.23,.29-6.23c0,0-.58-3.91-3.48-4.78,0,0-2.46-.72-6.09,4.2s-3.19,9.28-3.19,9.28c0,0,.58,5.22,1.59,7.54l-5.07,4.64s-4.64,3.62-6.67,9.57c-2.03,5.94,.14,10.44,.14,10.44,0,0,.87,2.75,3.19,4.78s4.78,3.04,4.78,3.04c0,0,1.88,.72,3.77,.87s4.35,0,4.35,0l.29,5.07,.29,3.48s0,2.32-.72,3.77-1.59,2.61-3.19,3.19-3.77,.43-3.77,.43c0,0-.87-.29-.07-.8,0,0,2.03-1.01,2.75-2.46s.14-3.19,.14-3.19c0,0-.58-2.17-2.9-2.9s-4.2,.58-5.07,2.32-.43,3.04-.43,3.04c0,0,.43,2.17,2.75,3.62s4.78,1.16,5.65,1.01,1.52-.36,1.52-.36c0,0,1.59-.72,2.75-2.03s1.74-4.2,1.74-4.2c0,0,.14-1.59-.14-3.33s-.72-6.81-.72-6.81l2.32-1.01s2.03-.87,2.75-1.59,2.46-2.46,3.48-5.07,.87-5.22,.87-5.22Zm-14.06-28.42c1.16-2.9,4.06-8.41,6.81-9.71,0,0,2.17,1.01,1.16,6.52-1.01,5.51-7.83,10.29-7.83,10.29,0,0-1.3-4.2-.14-7.1Zm-1.88,39.87c-3.77-1.01-5.22-2.9-5.22-2.9,0,0-1.88-2.03-2.32-4.35s-.58-3.33-.58-4.64,.72-3.62,5.07-8.84l5.07-5.36,.87,6.38s-3.62,1.16-5.36,3.77-1.74,5.07-1.74,5.07c0,0-.58,5.22,5.36,7.1,0,0,1.01-.14,.43-.43s-1.88-1.16-2.32-1.74-.87-2.17-.72-3.33,.87-3.04,1.45-3.77,2.32-2.03,3.48-2.17l.87,6.52,1.16,8.84s-1.74,.87-5.51-.14Zm11.74-8.7s-.14,2.75-.43,3.62-.87,3.77-5.07,5.07l-1.88-15.37s3.04-.58,5.36,1.74c2.32,2.32,2.03,4.93,2.03,4.93Z"/><path class="cls-1" d="M70.95,119.38l-.15-7.57c-.74-2.82-10.53-2.82-10.53-2.82h-7.42c5.49-2.82,10.98-6.08,10.68-8.16s-5.04-3.71-8.46-4.45-2.67-2.52-2.67-2.52c0,0,.59-2.37,2.08-3.26s1.19-1.48,1.19-1.48h-12.02l-16.76,21.66-4.3,.45c-.89,.89-.74,5.34-.74,5.34-.74,1.34-2.08,1.48-3.26,1.63s-.89,3.86-.89,3.86l1.19,.59v10.09l1.19,.45,1.19-.15v-9.35l15.28,6.68-.15,11.13,1.19,.59,1.63-.3,.15-11.72s14.09-1.78,16.02-1.93,1.48-1.63,1.48-1.63c1.19-.15,.89-1.19,.89-1.19,4.6,.15,3.86-3.56,3.86-3.56l4.3-.45-.15,13.2,1.34,.45,1.48-.15v-13.8c2.97-.3,2.37-1.63,2.37-1.63Zm-42.94,4.82l-2.08-.89s-.3-.89,.45-.89l1.78,.74s.74,.59-.15,1.04Zm33.6-11.05v2.08l-19.43,2.23-12.02-3.86,18.84-1.48c-.74-2.23-.74-6.68-.74-6.68l-3.86-12.02s-.3-.74,.3-.89,.74,.74,.74,.74l6.23,18.69s9.49-.3,11.72-.3,3.12,.89,3.12,.89l-4.9,.59Z"/></svg>