<?xml version="1.0" encoding="UTF-8"?><svg id="Layer_1" xmlns="http://www.w3.org/2000/svg" viewBox="0 0 114 106"><defs><style>.cls-1{fill:#a08cc2;}</style></defs><path class="cls-1" d="M2,72.5s-3.32-7.68,3-14c9-9,19.32-6.68,21-5,2,2,1.77,7.91,0,11l3.81,9.15c.79,1.9,1.41,3.86,1.86,5.86l2.33,9.99s0,2,2,2,1-1.79,1-4S25.28,20.39,25.28,20.39c-.27-1.88,.65-3.74,2.31-4.67L96,.5l5,20-10,3s2-11-5-9-47.17,10.91-47,12l2,13,30-7,3,12s-4-4-18-1c0,0-14,4-12,18l4,23s3.05,16.02-8,20c-11.05,3.98-16-6-16-6,0,0-2.15-7.66-2.59-10.31s-5.66-12.36-11.41-13.69c0,0-7,1-8-2Z"/><g><g><path class="cls-1" d="M55.61,78.91v1.3h-3.18v1.85h2.66v1.3h-2.65v2.84h-1.8l-.02-7.28h4.99Z"/><path class="cls-1" d="M63.14,78.9v1.3h-3.18v1.71h2.44v1.24h-2.43v1.74h3.19v1.29h-4.99l-.02-7.27h4.99Z"/><path class="cls-1" d="M70.09,80.36c-.05,.08-.11,.14-.17,.18s-.13,.06-.23,.06c-.08,0-.17-.02-.26-.07-.09-.05-.2-.1-.32-.16-.12-.06-.25-.11-.41-.16-.15-.05-.33-.07-.52-.07-.34,0-.59,.07-.75,.21-.17,.14-.25,.32-.25,.55,0,.15,.05,.27,.15,.36,.1,.1,.23,.18,.39,.25,.16,.07,.35,.13,.55,.19,.21,.06,.42,.12,.64,.19,.22,.07,.43,.15,.64,.25,.21,.1,.39,.22,.55,.37,.16,.15,.29,.33,.39,.55,.1,.21,.15,.47,.15,.78,0,.34-.06,.65-.18,.95-.12,.29-.3,.55-.54,.77-.24,.22-.53,.39-.87,.52s-.74,.19-1.18,.19c-.24,0-.49-.02-.74-.07-.25-.05-.49-.11-.73-.2-.24-.08-.46-.18-.66-.3-.21-.12-.39-.25-.54-.39l.53-.79c.04-.06,.09-.11,.17-.15,.07-.04,.15-.05,.23-.06,.11,0,.21,.03,.32,.09,.11,.06,.23,.13,.37,.21s.29,.15,.47,.21,.39,.09,.63,.09c.33,0,.58-.07,.76-.21,.18-.13,.27-.35,.27-.64,0-.17-.05-.31-.15-.41-.1-.11-.23-.2-.39-.26-.16-.07-.35-.13-.55-.18-.21-.05-.42-.11-.63-.18-.22-.07-.43-.14-.63-.24-.21-.09-.39-.22-.55-.37-.16-.16-.29-.35-.39-.58-.1-.23-.15-.52-.15-.86,0-.27,.06-.54,.17-.8,.12-.26,.29-.49,.51-.7,.23-.2,.5-.37,.83-.49,.33-.12,.71-.18,1.13-.19,.24,0,.47,.02,.7,.05,.23,.03,.44,.09,.64,.15,.2,.07,.39,.15,.57,.24,.18,.09,.33,.2,.47,.32l-.45,.79Z"/><path class="cls-1" d="M78.76,78.86v1.34h-2.18v5.95h-1.78v-5.94h-2.2v-1.33h6.16Z"/><path class="cls-1" d="M83.09,86.13h-1.81l-.02-7.28h1.81l.02,7.28Z"/><path class="cls-1" d="M85.47,78.84h1.45c.16,0,.28,.03,.38,.1,.1,.07,.17,.15,.21,.26l1.51,3.9c.07,.17,.14,.35,.21,.55,.07,.2,.13,.41,.2,.63,.05-.22,.11-.43,.17-.63,.06-.2,.13-.38,.19-.55l1.48-3.9c.04-.09,.1-.18,.21-.25,.1-.07,.23-.11,.38-.11h1.46l-3.09,7.29h-1.63l-3.13-7.27Z"/><path class="cls-1" d="M101.73,86.09h-1.4c-.16,0-.28-.03-.39-.1-.1-.07-.17-.15-.21-.26l-.46-1.27h-2.95l-.45,1.28c-.04,.09-.1,.18-.21,.25s-.23,.11-.38,.11h-1.41l2.98-7.29h1.84l3.02,7.27Zm-4.99-2.77h2.12l-.72-2c-.05-.13-.1-.28-.16-.45s-.12-.36-.19-.56c-.06,.2-.11,.39-.17,.57-.06,.17-.12,.32-.17,.45l-.71,1.99Z"/><path class="cls-1" d="M105.75,84.73h2.88v1.34h-4.67l-.02-7.27h1.8v5.93Z"/></g><g><path class="cls-1" d="M77.51,60.69c0,2-.36,3.86-1.06,5.58-.7,1.72-1.68,3.21-2.93,4.48-1.26,1.27-2.77,2.26-4.54,2.97-1.77,.72-3.73,1.07-5.88,1.06-2.15,0-4.12-.38-5.89-1.11s-3.28-1.73-4.54-3.01c-1.26-1.28-2.22-2.78-2.91-4.5s-1.02-3.59-1.01-5.59c0-2,.36-3.86,1.06-5.58,.7-1.72,1.68-3.21,2.94-4.47,1.26-1.26,2.79-2.25,4.56-2.96s3.74-1.07,5.9-1.06c2.15,0,4.11,.38,5.88,1.12,1.76,.74,3.27,1.74,4.52,3.01s2.21,2.77,2.9,4.5c.68,1.72,1.02,3.58,1.01,5.57Zm-6.57-.03c0-1.37-.17-2.6-.52-3.7-.35-1.1-.86-2.03-1.52-2.79-.66-.76-1.47-1.35-2.43-1.76s-2.06-.62-3.28-.62c-1.24,0-2.35,.19-3.32,.59s-1.79,.98-2.46,1.74-1.18,1.68-1.54,2.78c-.36,1.09-.54,2.33-.55,3.69,0,1.38,.17,2.62,.52,3.72,.35,1.1,.86,2.03,1.52,2.79,.66,.76,1.48,1.34,2.44,1.75,.97,.4,2.07,.61,3.31,.61,1.23,0,2.33-.19,3.29-.59,.96-.4,1.78-.97,2.45-1.73s1.18-1.68,1.54-2.78c.36-1.09,.54-2.33,.55-3.71Z"/><path class="cls-1" d="M109.81,60.82c0,2-.36,3.86-1.06,5.58-.7,1.72-1.68,3.21-2.93,4.48-1.26,1.27-2.77,2.26-4.54,2.97-1.77,.71-3.73,1.07-5.88,1.06-2.15,0-4.12-.38-5.89-1.11-1.77-.73-3.28-1.73-4.54-3.01-1.26-1.28-2.22-2.78-2.91-4.5-.68-1.73-1.02-3.59-1.01-5.59,0-2,.36-3.86,1.06-5.58,.7-1.72,1.68-3.21,2.94-4.47,1.26-1.26,2.79-2.25,4.56-2.97,1.78-.71,3.74-1.07,5.9-1.06,2.15,0,4.11,.38,5.88,1.12,1.76,.74,3.27,1.74,4.52,3.01,1.25,1.27,2.21,2.77,2.9,4.5,.68,1.73,1.02,3.58,1.01,5.57Zm-6.57-.03c0-1.37-.17-2.6-.52-3.7-.35-1.1-.86-2.03-1.52-2.79s-1.47-1.35-2.43-1.76-2.06-.62-3.28-.62c-1.24,0-2.35,.19-3.32,.59s-1.79,.98-2.46,1.74-1.18,1.68-1.54,2.78c-.36,1.09-.54,2.33-.55,3.69,0,1.38,.17,2.62,.52,3.72,.35,1.1,.86,2.03,1.52,2.79,.66,.76,1.48,1.34,2.44,1.75,.97,.4,2.07,.61,3.31,.61,1.23,0,2.33-.19,3.29-.59,.96-.4,1.78-.97,2.45-1.73,.67-.76,1.18-1.68,1.54-2.78,.36-1.09,.54-2.33,.55-3.71Z"/></g></g></svg>