<?xml version="1.0" encoding="UTF-8"?><svg id="Layer_1" xmlns="http://www.w3.org/2000/svg" viewBox="0 0 92 212.35"><defs><style>.cls-1{fill:#35324f;}.cls-2{fill:#202035;stroke:#35324f;stroke-miterlimit:10;stroke-width:2px;}</style></defs><polygon class="cls-2" points="1 1.68 91 50.68 91 210.68 1 162.68 1 1.68"/><path class="cls-1" d="M57.14,66.67l-.15-.27c-.06-.11-.17-.17-.29-.17-.44,.02-1.58-.06-2.48-1.24-.08-.11-.22-.16-.35-.12l-4.47,1.38c-.15,.05-.24,.19-.22,.35l.02,.13c.02,.16-.08,.31-.23,.35-.84,.22-3.42,.87-5.06,1-1.88,.15-3.38,1.31-3.52,1.42l-.02,.02c-.15,.14-1.99,1.93-2.41,4.07s-.92,4.48,2.43,12.66l3.07,8.33c.06,.17-.02,.35-.19,.41l-1,.37c-.17,.06-.25,.25-.19,.41l1.6,4.24c.06,.16,.25,.25,.41,.19l.95-.35c.17-.06,.35,.02,.41,.19l1.04,2.86c.06,.17-.02,.35-.19,.41l-1.16,.43c-.17,.06-.25,.25-.19,.41l1.6,4.24c.06,.16,.25,.25,.41,.19l1.1-.41c.17-.06,.35,.02,.41,.19l1.24,3.42c.06,.17-.02,.35-.19,.41l-1.22,.45c-.17,.06-.25,.25-.19,.41l1.6,4.24c.06,.16,.25,.25,.41,.19l1.15-.43c.17-.06,.35,.02,.41,.19l3.54,9.67,2.64,7.54s.01,.03,.02,.04c.11,.22,1.19,2.36-.7,2.56h-.07c-1.53,.16-3-.66-3.7-2.03s-1.86-3.31-2.52-5.33c-1.18-3.6-5.12-10.12-7.6-12.41-1.04-.96-3.28-2.49-4.43-2.96-1.32-.54-2.31-1.67-2.67-3.06l-2.02-7.69c-.08-.39-.63-.42-.74-.04l-.98,3.15c-.02,.06-.03,.11-.05,.17l-1.22,5.08-1.54,7.28c-.05,.24-.09,.49-.12,.73l-.97,7.86c-.05,.43-.09,.85-.11,1.28l-.19,3.41c-.04,.7,.85,1.02,1.27,.46,2.29-3.07,6.85-8.24,9.68-5.24,4.57,4.87,6.52,11.62,8.04,13.94s3.08,5.65,9.69,4.17c6.43-1.44,9.31-6.87,9.47-7.17v-.03c.09-.19,.88-2.24,.13-5.12-.79-3.03-7.58-18.97-7.58-18.97l-12.02-26.25-5.06-11.15s-1.49-3.04,1.56-5.43c0,0,1.27-1.02,5.75-2.51,.19-.06,.39,.06,.42,.26h0c.03,.2,.24,.33,.43,.26l6.96-2.61c.18-.07,.26-.28,.17-.45Z"/></svg>