<?xml version="1.0" encoding="UTF-8"?><svg id="Layer_1" xmlns="http://www.w3.org/2000/svg" viewBox="0 0 92 212.35"><defs><style>.cls-1{fill:#35324f;}.cls-2{fill:#202035;stroke:#35324f;stroke-miterlimit:10;stroke-width:2px;}</style></defs><polygon class="cls-2" points="1 1.68 91 50.68 91 210.68 1 162.68 1 1.68"/><path class="cls-1" d="M55.8,93.31c7.67-4.52,15.84-2.56,15.84-2.56-8.45-12.04-18.76-18.52-18.76-18.52,2.18,7.84-1.84,16.73-1.84,16.73l.56,.54-13.89,14-1.96-1.91s.82-.56-.02-1.38-2.19,1.13-2.19,1.13c0,0-1.64,1.4-.8,1.94s1.38-.02,1.38-.02l1.96,2.18-1.63,1.68-2.24-2.18s.82-.84-.02-1.38-2.19,1.13-2.19,1.13c0,0-1.63,1.68-.8,2.22s1.38-.02,1.38-.02l1.96,2.18-1.36,1.68-2.24-2.18c.27-.56,.26-1.11-.3-1.38s-1.1,.29-1.92,1.13-1.64,1.4-1.08,1.95,1.38,.26,1.38,.26l2.24,1.9-15.52,15.95c-1.39-.81-1.92,.85-1.92,.85l4.76,4.63,.82-.56c.54-.84-.57-1.65-.57-1.65l5.72-5.88c.31,2.21,1.44,4.12,1.44,4.12,0,0,3.38,4.92,9.46,4.84,6.07-.08,8.51-3.98,8.51-3.98l8.98-9.51c9.54-9.24,9.24-10.62,9.76-13.39,.51-2.77-.36-5.79-2.32-8.25s-6.68-3.5-6.68-3.5l3.54-3.36,.56,.54Zm-4.14,20.49l-5.99,6.16-4.63,4.76s-.82,.56-1.93,.58c0,0-3.32-.23-3.36-3.27-.04-3.04,2.42-4.45,5.42-7.53,3-3.08,4.89-6.14,7.37-6.18s3.63,2.71,3.63,2.71c0,0,.3,1.93-.51,2.77Zm2.05-11.9c3.91,2.98,1.77,7.98,.95,8.82,0,0-.9-4.96-6.14-4.89,0,0-2.22-.52-6.03,3.67-3.81,4.19-6.54,6.72-6.54,6.72,0,0-3,2.53-3.24,5.57-.23,3.04,2.29,6.04,5.33,6,0,0-1.62,2.51-4.94,2.28s-6.11-2.68-6.16-6.27,7.32-9.77,7.32-9.77l11.44-11.76s4.1-3.37,8-.39Z"/></svg>