<?xml version="1.0" encoding="UTF-8"?><svg id="Layer_1" xmlns="http://www.w3.org/2000/svg" viewBox="0 0 43 98.26"><defs><style>.cls-1{fill:#F39B13;}</style></defs><path class="cls-1" d="M42.36,48.23s-.09-3.71-3.68-7.34c-3.59-3.63-4.92-7.31-4.92-7.31l4.85-21.56,.81-.64,.97-2.5-.61,.22-.08-3.3,1.41-1.48h.62l.38-1.47-.62-.19,.19-.83h-.41l.39-1.03L39.35,.05l-.39,1.04-.42-.2-.39,.83-.82,.02-.38,1.25,.84,.6,.46,1.84-1.99,2.93-.42-.4-.36,2.07,.23,1.03-6.5,21.19c-1.41,1.48-9.18,4.14-9.18,4.14,0,0-3.47,1.32-5.88,4.26s-2.03,10.15-2.03,10.15c5.76,2.04,2.59,8.13,1.21,10.32-.39,.61-.9,1.13-1.51,1.52-.52,.33-1.18,.66-1.87,.79-1.35,.24-2.8-.49-3.11-.54-5.76,9.21-5.46,13.12-5.46,13.12,0,0-.71,4.76,2.69,9.21,3.41,4.46,8.29,5.89,9.54,6.47,1.25,.59,1.27,1.41,1.27,1.41l-.73,4.14,1.87-3.65s.38-1.25,1.83-.87c1.45,.38,5.8,.89,5.8,.89,7.62-.59,10.83-4.18,12.62-6.69,1.8-2.52,2.74-14.71,1.9-15.51,0,0-2.14-.8-3.13-1.57-.47-.37-.88-.81-1.2-1.21-.63-.8-.96-1.8-.92-2.82,.34-9.75,6.99-7.84,6.99-7.84,3.38-5.44,2.45-9.75,2.45-9.75Zm-19.65,10.86c-.89-.25-1.5-1.33-.04-1.64,0,0,.28-.82-.91-1.07-1.18-.24-2.3,2.24-2.3,2.24,0,0-1.38,3.85-1.64,5.22-.26,1.37-1.66,4.4-2.24,4.96s-2.02,1.96-4.98,1.21-1.26-3.24-1.26-3.24c0,0,.86-1.11,2.05-.32,1.2,.79,.07,2.73-1.13,1.94,0,0,.03,1.09,1.2,1.06,1.18-.03,2.63-.88,3.18-2.53,.55-1.65,3.05-7.98,3.05-7.98,0,0,1.4-3.03,3.75-3.09,2.35-.06,2.41,2.4,2.41,2.4,0,0-.27,1.1-1.16,.85Zm7.58,16.35c-2.83-.66-3.35-2.56-3.56-3.32-.21-.76,.11-4.11,.56-5.46,.45-1.35,1.18-5.43,1.18-5.43,0,0,.28-2.73-.83-3.04-1.11-.31-1.28,.55-1.28,.55,1.07,.93,.03,1.62-.83,1.45-.86-.17-.55-1.28-.55-1.28,0,0,1.25-2.18,3.18-1.07,1.93,1.11,1.62,4.46,1.62,4.46,0,0-1.01,6.81-1.35,8.54-.35,1.73,.45,3.15,1.41,3.7,.97,.55,1.52-.41,1.52-.41-1.38,.17-1.38-2.08,0-2.25s1.55,1.21,1.55,1.21c0,0,.21,3.01-2.63,2.35Z"/></svg>