<svg width="564" height="567" viewBox="0 0 564 567" fill="none" xmlns="http://www.w3.org/2000/svg">
<g clip-path="url(#clip0_814_534)">
<rect width="564" height="564" transform="translate(0 3)" fill="#34334D"/>
<path d="M131.5 200.694L32.7018 208.312L-27 171.606V-5H184H252.754L217.566 91C205.506 103.928 189.154 142.933 184 163.987C178.846 185.042 144.551 197.231 131.5 200.694Z" fill="#A08CC2"/>
<path d="M312.724 123.126L360.303 -5H564V76.7234V163.987L468.842 219.393L360.303 200.694L317.184 171.606L312.724 123.126Z" fill="#A08CC2"/>
<path d="M217.566 255.841L300.5 219.393L384 255.841L494 290.728L468.842 348.341C457.939 370.042 423.895 372.036 412 386.995C400.105 401.955 317.184 405.695 252.754 386.995C238.382 369.219 246.906 321.895 217.566 321.341C188.225 320.787 205.341 278.234 217.566 255.841Z" fill="#A08CC2"/>
<path d="M300.5 516.841L312.724 455.341L430 447.341H494L536.246 467.341L545.5 516.841L550.5 568.341H273L300.5 516.841Z" fill="#A08CC2"/>
<path d="M123 405.695L-19.5 368.341L-27 447.341L-9.5 568.341L174 575.841L217.566 508.888L203.689 405.695H123Z" fill="#A08CC2"/>
<path d="M36.0475 66.6364C35.9197 65.5568 35.4012 64.7188 34.4921 64.1222C33.583 63.5256 32.468 63.2273 31.1469 63.2273C30.181 63.2273 29.3358 63.3835 28.6114 63.696C27.8941 64.0085 27.333 64.4382 26.9282 64.9851C26.5305 65.532 26.3316 66.1534 26.3316 66.8494C26.3316 67.4318 26.4701 67.9325 26.7471 68.3516C27.0312 68.7635 27.3934 69.108 27.8337 69.3849C28.2741 69.6548 28.7357 69.8786 29.2187 70.0561C29.7016 70.2266 30.1455 70.3651 30.5503 70.4716L32.7662 71.0682C33.3344 71.2173 33.9665 71.4233 34.6626 71.6861C35.3657 71.9489 36.0368 72.3075 36.676 72.7621C37.3224 73.2095 37.855 73.7848 38.2741 74.4879C38.6931 75.1911 38.9026 76.054 38.9026 77.0767C38.9026 78.2557 38.5937 79.321 37.9758 80.2727C37.365 81.2244 36.4701 81.9808 35.2911 82.5419C34.1192 83.103 32.6952 83.3835 31.0191 83.3835C29.4566 83.3835 28.1036 83.1314 26.9601 82.6271C25.8238 82.1229 24.9289 81.4197 24.2755 80.5178C23.6292 79.6158 23.2634 78.5682 23.1782 77.375H25.9055C25.9765 78.1989 26.2535 78.8807 26.7364 79.4205C27.2265 79.9531 27.8444 80.3509 28.5901 80.6136C29.343 80.8693 30.1526 80.9972 31.0191 80.9972C32.0276 80.9972 32.9332 80.8338 33.7357 80.5071C34.5383 80.1733 35.1739 79.7116 35.6427 79.1222C36.1114 78.5256 36.3458 77.8295 36.3458 77.0341C36.3458 76.3097 36.1434 75.7202 35.7385 75.2656C35.3337 74.8111 34.801 74.4418 34.1405 74.1577C33.48 73.8736 32.7662 73.625 31.9992 73.4119L29.3145 72.6449C27.61 72.1548 26.2606 71.4553 25.2662 70.5462C24.2719 69.6371 23.7748 68.4474 23.7748 66.9773C23.7748 65.7557 24.105 64.6903 24.7655 63.7812C25.4331 62.8651 26.328 62.1548 27.4502 61.6506C28.5795 61.1392 29.8401 60.8835 31.2322 60.8835C32.6384 60.8835 33.8884 61.1357 34.9822 61.6399C36.0759 62.1371 36.9424 62.8189 37.5816 63.6854C38.2279 64.5518 38.5688 65.5355 38.6043 66.6364H36.0475ZM56.2863 66.6364L50.2352 83H47.6784L41.6272 66.6364H44.3545L48.8715 79.6761H49.042L53.559 66.6364H56.2863ZM63.9221 83.3835C62.8852 83.3835 61.9442 83.1882 61.099 82.7976C60.2538 82.3999 59.5827 81.8281 59.0855 81.0824C58.5883 80.3295 58.3398 79.4205 58.3398 78.3551C58.3398 77.4176 58.5244 76.6577 58.8937 76.0753C59.2631 75.4858 59.7567 75.0241 60.3746 74.6903C60.9925 74.3565 61.6743 74.108 62.42 73.9446C63.1729 73.7741 63.9292 73.6392 64.6892 73.5398C65.6835 73.4119 66.4896 73.3161 67.1075 73.2521C67.7325 73.1811 68.1871 73.0639 68.4711 72.9006C68.7623 72.7372 68.9079 72.4531 68.9079 72.0483V71.9631C68.9079 70.9119 68.6203 70.0952 68.045 69.5128C67.4768 68.9304 66.6139 68.6392 65.4562 68.6392C64.2559 68.6392 63.3149 68.902 62.6331 69.4276C61.9513 69.9531 61.4719 70.5142 61.1949 71.1108L58.8085 70.2585C59.2346 69.2642 59.8028 68.4901 60.5131 67.9361C61.2304 67.375 62.0116 66.9844 62.8568 66.7642C63.7091 66.5369 64.5471 66.4233 65.371 66.4233C65.8966 66.4233 66.5003 66.4872 67.1821 66.6151C67.871 66.7358 68.5351 66.9879 69.1743 67.3714C69.8206 67.755 70.3568 68.3338 70.7829 69.108C71.2091 69.8821 71.4221 70.919 71.4221 72.2188V83H68.9079V80.7841H68.7801C68.6096 81.1392 68.3256 81.5192 67.9278 81.924C67.5301 82.3288 67.001 82.6733 66.3405 82.9574C65.68 83.2415 64.8738 83.3835 63.9221 83.3835ZM64.3057 81.125C65.3 81.125 66.1381 80.9297 66.8199 80.5391C67.5088 80.1484 68.0273 79.6442 68.3753 79.0263C68.7304 78.4084 68.9079 77.7585 68.9079 77.0767V74.7756C68.8014 74.9034 68.567 75.0206 68.2048 75.1271C67.8497 75.2266 67.4378 75.3153 66.969 75.3935C66.5074 75.4645 66.0564 75.5284 65.616 75.5852C65.1828 75.6349 64.8312 75.6776 64.5613 75.7131C63.9079 75.7983 63.2971 75.9368 62.729 76.1286C62.1679 76.3132 61.7133 76.5937 61.3653 76.9702C61.0244 77.3395 60.854 77.8437 60.854 78.483C60.854 79.3565 61.1771 80.017 61.8234 80.4645C62.4768 80.9048 63.3042 81.125 64.3057 81.125ZM76.0111 83V66.6364H78.4401V69.108H78.6105C78.9088 68.2983 79.4486 67.6413 80.2298 67.1371C81.0111 66.6328 81.8918 66.3807 82.8719 66.3807C83.0566 66.3807 83.2874 66.3842 83.5644 66.3913C83.8414 66.3984 84.0509 66.4091 84.1929 66.4233V68.9801C84.1077 68.9588 83.9124 68.9268 83.607 68.8842C83.3087 68.8345 82.9926 68.8097 82.6588 68.8097C81.8634 68.8097 81.1531 68.9766 80.5281 69.3104C79.9102 69.6371 79.4202 70.0916 79.058 70.674C78.7029 71.2493 78.5253 71.9062 78.5253 72.6449V83H76.0111ZM95.3151 66.6364V68.767H86.835V66.6364H95.3151ZM89.3066 62.7159H91.8208V78.3125C91.8208 79.0227 91.9237 79.5554 92.1297 79.9105C92.3428 80.2585 92.6127 80.4929 92.9394 80.6136C93.2732 80.7273 93.6247 80.7841 93.9941 80.7841C94.271 80.7841 94.4983 80.7699 94.6759 80.7415C94.8534 80.706 94.9955 80.6776 95.102 80.6562L95.6134 82.9148C95.4429 82.9787 95.205 83.0426 94.8996 83.1065C94.5942 83.1776 94.2071 83.2131 93.7384 83.2131C93.0281 83.2131 92.3321 83.0604 91.6503 82.755C90.9756 82.4496 90.4145 81.9844 89.9671 81.3594C89.5267 80.7344 89.3066 79.946 89.3066 78.9943V62.7159ZM101.963 73.1562V83H99.4486V61.1818H101.963V69.1932H102.176C102.559 68.348 103.135 67.6768 103.902 67.1797C104.676 66.6754 105.706 66.4233 106.991 66.4233C108.106 66.4233 109.083 66.647 109.921 67.0945C110.759 67.5348 111.409 68.2131 111.87 69.1293C112.339 70.0384 112.574 71.196 112.574 72.6023V83H110.059V72.7727C110.059 71.473 109.722 70.468 109.047 69.7578C108.38 69.0405 107.453 68.6818 106.267 68.6818C105.443 68.6818 104.704 68.8558 104.051 69.2038C103.405 69.5518 102.893 70.0597 102.517 70.7273C102.147 71.3949 101.963 72.2045 101.963 73.1562ZM124.034 83.3409C122.457 83.3409 121.097 82.9929 119.954 82.2969C118.817 81.5938 117.94 80.6136 117.322 79.3565C116.712 78.0923 116.406 76.6222 116.406 74.946C116.406 73.2699 116.712 71.7926 117.322 70.5142C117.94 69.2287 118.8 68.2273 119.9 67.5099C121.008 66.7855 122.301 66.4233 123.778 66.4233C124.631 66.4233 125.472 66.5653 126.303 66.8494C127.134 67.1335 127.891 67.5952 128.572 68.2344C129.254 68.8665 129.797 69.7045 130.202 70.7486C130.607 71.7926 130.81 73.0781 130.81 74.6051V75.6705H118.196V73.4972H128.253C128.253 72.5739 128.068 71.75 127.699 71.0256C127.337 70.3011 126.818 69.7294 126.143 69.3104C125.476 68.8913 124.687 68.6818 123.778 68.6818C122.777 68.6818 121.91 68.9304 121.179 69.4276C120.454 69.9176 119.897 70.5568 119.506 71.3452C119.116 72.1335 118.92 72.9787 118.92 73.8807V75.3295C118.92 76.5653 119.133 77.6129 119.56 78.4723C119.993 79.3246 120.593 79.9744 121.36 80.4219C122.127 80.8622 123.018 81.0824 124.034 81.0824C124.695 81.0824 125.291 80.9901 125.824 80.8054C126.364 80.6136 126.829 80.3295 127.219 79.9531C127.61 79.5696 127.912 79.0937 128.125 78.5256L130.554 79.2074C130.298 80.0312 129.869 80.7557 129.265 81.3807C128.661 81.9986 127.915 82.4815 127.028 82.8295C126.14 83.1705 125.142 83.3409 124.034 83.3409ZM134.634 83V66.6364H137.148V83H134.634ZM135.913 63.9091C135.422 63.9091 135 63.7422 134.645 63.4084C134.297 63.0746 134.123 62.6733 134.123 62.2045C134.123 61.7358 134.297 61.3345 134.645 61.0007C135 60.6669 135.422 60.5 135.913 60.5C136.403 60.5 136.822 60.6669 137.17 61.0007C137.525 61.3345 137.702 61.7358 137.702 62.2045C137.702 62.6733 137.525 63.0746 137.17 63.4084C136.822 63.7422 136.403 63.9091 135.913 63.9091ZM141.753 83V66.6364H144.182V69.1932H144.395C144.736 68.3196 145.287 67.6413 146.047 67.1584C146.807 66.6683 147.719 66.4233 148.785 66.4233C149.864 66.4233 150.763 66.6683 151.48 67.1584C152.204 67.6413 152.769 68.3196 153.174 69.1932H153.344C153.763 68.348 154.392 67.6768 155.23 67.1797C156.068 66.6754 157.073 66.4233 158.245 66.4233C159.708 66.4233 160.905 66.8814 161.835 67.7976C162.765 68.7067 163.231 70.1236 163.231 72.0483V83H160.716V72.0483C160.716 70.8409 160.386 69.978 159.726 69.4595C159.065 68.9411 158.287 68.6818 157.392 68.6818C156.242 68.6818 155.351 69.0298 154.718 69.7259C154.086 70.4148 153.77 71.2884 153.77 72.3466V83H151.214V71.7926C151.214 70.8622 150.912 70.1129 150.308 69.5447C149.704 68.9695 148.927 68.6818 147.975 68.6818C147.321 68.6818 146.711 68.8558 146.142 69.2038C145.581 69.5518 145.127 70.0348 144.779 70.6527C144.438 71.2635 144.267 71.9702 144.267 72.7727V83H141.753Z" fill="white"/>
<path d="M49.4354 466.182V488H46.8786L34.9893 470.869H34.7763V488H32.1342V466.182H34.6911L46.6229 483.355H46.8359V466.182H49.4354ZM54.3812 488V471.636H56.8954V488H54.3812ZM55.6596 468.909C55.1696 468.909 54.747 468.742 54.3919 468.408C54.0439 468.075 53.8699 467.673 53.8699 467.205C53.8699 466.736 54.0439 466.335 54.3919 466.001C54.747 465.667 55.1696 465.5 55.6596 465.5C56.1497 465.5 56.5687 465.667 56.9167 466.001C57.2718 466.335 57.4494 466.736 57.4494 467.205C57.4494 467.673 57.2718 468.075 56.9167 468.408C56.5687 468.742 56.1497 468.909 55.6596 468.909ZM64.0146 466.182V488H61.5004V466.182H64.0146ZM75.9064 471.636V473.767H67.0854V471.636H75.9064ZM69.7275 488V469.378C69.7275 468.44 69.9476 467.659 70.388 467.034C70.8283 466.409 71.4 465.94 72.1032 465.628C72.8063 465.315 73.5485 465.159 74.3297 465.159C74.9476 465.159 75.4519 465.209 75.8425 465.308C76.2331 465.408 76.5243 465.5 76.7161 465.585L75.9917 467.759C75.8638 467.716 75.6863 467.663 75.459 467.599C75.2388 467.535 74.9476 467.503 74.5854 467.503C73.7544 467.503 73.1543 467.712 72.785 468.131C72.4228 468.55 72.2417 469.165 72.2417 469.974V488H69.7275ZM81.9442 478.156V488H79.43V466.182H81.9442V474.193H82.1573C82.5408 473.348 83.1161 472.677 83.8832 472.18C84.6573 471.675 85.6871 471.423 86.9727 471.423C88.0877 471.423 89.0643 471.647 89.9023 472.094C90.7404 472.535 91.3903 473.213 91.8519 474.129C92.3207 475.038 92.555 476.196 92.555 477.602V488H90.0408V477.773C90.0408 476.473 89.7035 475.468 89.0288 474.758C88.3612 474.04 87.4343 473.682 86.2482 473.682C85.4244 473.682 84.6857 473.856 84.0323 474.204C83.386 474.552 82.8746 475.06 82.4982 475.727C82.1289 476.395 81.9442 477.205 81.9442 478.156ZM104.015 488.341C102.439 488.341 101.079 487.993 99.9352 487.297C98.7988 486.594 97.9217 485.614 97.3038 484.357C96.693 483.092 96.3876 481.622 96.3876 479.946C96.3876 478.27 96.693 476.793 97.3038 475.514C97.9217 474.229 98.7811 473.227 99.8819 472.51C100.99 471.786 102.282 471.423 103.76 471.423C104.612 471.423 105.454 471.565 106.285 471.849C107.116 472.134 107.872 472.595 108.554 473.234C109.236 473.866 109.779 474.705 110.184 475.749C110.589 476.793 110.791 478.078 110.791 479.605V480.67H98.1774V478.497H108.234C108.234 477.574 108.05 476.75 107.68 476.026C107.318 475.301 106.8 474.729 106.125 474.31C105.457 473.891 104.669 473.682 103.76 473.682C102.758 473.682 101.892 473.93 101.16 474.428C100.436 474.918 99.8784 475.557 99.4877 476.345C99.0971 477.134 98.9018 477.979 98.9018 478.881V480.33C98.9018 481.565 99.1149 482.613 99.541 483.472C99.9743 484.325 100.574 484.974 101.341 485.422C102.108 485.862 103 486.082 104.015 486.082C104.676 486.082 105.273 485.99 105.805 485.805C106.345 485.614 106.81 485.33 107.201 484.953C107.591 484.57 107.893 484.094 108.106 483.526L110.535 484.207C110.28 485.031 109.85 485.756 109.246 486.381C108.643 486.999 107.897 487.482 107.009 487.83C106.121 488.17 105.123 488.341 104.015 488.341ZM114.616 488V471.636H117.13V488H114.616ZM115.894 468.909C115.404 468.909 114.981 468.742 114.626 468.408C114.278 468.075 114.104 467.673 114.104 467.205C114.104 466.736 114.278 466.335 114.626 466.001C114.981 465.667 115.404 465.5 115.894 465.5C116.384 465.5 116.803 465.667 117.151 466.001C117.506 466.335 117.684 466.736 117.684 467.205C117.684 467.673 117.506 468.075 117.151 468.408C116.803 468.742 116.384 468.909 115.894 468.909ZM121.735 488V471.636H124.164V474.193H124.377C124.718 473.32 125.268 472.641 126.028 472.158C126.788 471.668 127.701 471.423 128.766 471.423C129.846 471.423 130.744 471.668 131.461 472.158C132.186 472.641 132.75 473.32 133.155 474.193H133.326C133.745 473.348 134.373 472.677 135.211 472.18C136.049 471.675 137.054 471.423 138.226 471.423C139.689 471.423 140.886 471.881 141.816 472.798C142.747 473.707 143.212 475.124 143.212 477.048V488H140.698V477.048C140.698 475.841 140.368 474.978 139.707 474.46C139.047 473.941 138.269 473.682 137.374 473.682C136.223 473.682 135.332 474.03 134.7 474.726C134.068 475.415 133.752 476.288 133.752 477.347V488H131.195V476.793C131.195 475.862 130.893 475.113 130.289 474.545C129.686 473.969 128.908 473.682 127.956 473.682C127.303 473.682 126.692 473.856 126.124 474.204C125.563 474.552 125.108 475.035 124.76 475.653C124.419 476.263 124.249 476.97 124.249 477.773V488H121.735Z" fill="white"/>
<path d="M285.059 333V311.182H287.701V320.898H299.335V311.182H301.977V333H299.335V323.241H287.701V333H285.059ZM313.786 333.341C312.209 333.341 310.849 332.993 309.706 332.297C308.569 331.594 307.692 330.614 307.074 329.357C306.464 328.092 306.158 326.622 306.158 324.946C306.158 323.27 306.464 321.793 307.074 320.514C307.692 319.229 308.552 318.227 309.652 317.51C310.76 316.786 312.053 316.423 313.53 316.423C314.383 316.423 315.224 316.565 316.055 316.849C316.886 317.134 317.642 317.595 318.324 318.234C319.006 318.866 319.549 319.705 319.954 320.749C320.359 321.793 320.562 323.078 320.562 324.605V325.67H307.948V323.497H318.005C318.005 322.574 317.82 321.75 317.451 321.026C317.089 320.301 316.57 319.729 315.895 319.31C315.228 318.891 314.439 318.682 313.53 318.682C312.529 318.682 311.662 318.93 310.931 319.428C310.206 319.918 309.649 320.557 309.258 321.345C308.868 322.134 308.672 322.979 308.672 323.881V325.33C308.672 326.565 308.885 327.613 309.312 328.472C309.745 329.325 310.345 329.974 311.112 330.422C311.879 330.862 312.77 331.082 313.786 331.082C314.446 331.082 315.043 330.99 315.576 330.805C316.116 330.614 316.581 330.33 316.971 329.953C317.362 329.57 317.664 329.094 317.877 328.526L320.306 329.207C320.05 330.031 319.62 330.756 319.017 331.381C318.413 331.999 317.667 332.482 316.78 332.83C315.892 333.17 314.894 333.341 313.786 333.341ZM326.9 311.182V333H324.386V311.182H326.9ZM334.019 323.156V333H331.505V311.182H334.019V319.193H334.233C334.616 318.348 335.191 317.677 335.958 317.18C336.733 316.675 337.762 316.423 339.048 316.423C340.163 316.423 341.139 316.647 341.978 317.094C342.816 317.535 343.465 318.213 343.927 319.129C344.396 320.038 344.63 321.196 344.63 322.602V333H342.116V322.773C342.116 321.473 341.779 320.468 341.104 319.758C340.436 319.04 339.509 318.682 338.323 318.682C337.5 318.682 336.761 318.856 336.108 319.204C335.461 319.552 334.95 320.06 334.573 320.727C334.204 321.395 334.019 322.205 334.019 323.156ZM356.091 333.341C354.514 333.341 353.154 332.993 352.01 332.297C350.874 331.594 349.997 330.614 349.379 329.357C348.768 328.092 348.463 326.622 348.463 324.946C348.463 323.27 348.768 321.793 349.379 320.514C349.997 319.229 350.856 318.227 351.957 317.51C353.065 316.786 354.358 316.423 355.835 316.423C356.687 316.423 357.529 316.565 358.36 316.849C359.191 317.134 359.947 317.595 360.629 318.234C361.311 318.866 361.854 319.705 362.259 320.749C362.664 321.793 362.866 323.078 362.866 324.605V325.67H350.253V323.497H360.309C360.309 322.574 360.125 321.75 359.755 321.026C359.393 320.301 358.875 319.729 358.2 319.31C357.532 318.891 356.744 318.682 355.835 318.682C354.834 318.682 353.967 318.93 353.236 319.428C352.511 319.918 351.954 320.557 351.563 321.345C351.172 322.134 350.977 322.979 350.977 323.881V325.33C350.977 326.565 351.19 327.613 351.616 328.472C352.049 329.325 352.65 329.974 353.417 330.422C354.184 330.862 355.075 331.082 356.091 331.082C356.751 331.082 357.348 330.99 357.88 330.805C358.42 330.614 358.885 330.33 359.276 329.953C359.667 329.57 359.968 329.094 360.182 328.526L362.611 329.207C362.355 330.031 361.925 330.756 361.321 331.381C360.718 331.999 359.972 332.482 359.084 332.83C358.196 333.17 357.199 333.341 356.091 333.341ZM366.691 333V316.636H369.205V333H366.691ZM367.969 313.909C367.479 313.909 367.057 313.742 366.701 313.408C366.353 313.075 366.179 312.673 366.179 312.205C366.179 311.736 366.353 311.335 366.701 311.001C367.057 310.667 367.479 310.5 367.969 310.5C368.459 310.5 368.878 310.667 369.226 311.001C369.581 311.335 369.759 311.736 369.759 312.205C369.759 312.673 369.581 313.075 369.226 313.408C368.878 313.742 368.459 313.909 367.969 313.909ZM373.81 333V316.636H376.239V319.193H376.452C376.793 318.32 377.343 317.641 378.103 317.158C378.863 316.668 379.776 316.423 380.841 316.423C381.921 316.423 382.819 316.668 383.536 317.158C384.261 317.641 384.826 318.32 385.23 319.193H385.401C385.82 318.348 386.448 317.677 387.286 317.18C388.125 316.675 389.13 316.423 390.301 316.423C391.764 316.423 392.961 316.881 393.892 317.798C394.822 318.707 395.287 320.124 395.287 322.048V333H392.773V322.048C392.773 320.841 392.443 319.978 391.782 319.46C391.122 318.941 390.344 318.682 389.449 318.682C388.299 318.682 387.407 319.03 386.775 319.726C386.143 320.415 385.827 321.288 385.827 322.347V333H383.27V321.793C383.27 320.862 382.968 320.113 382.365 319.545C381.761 318.969 380.983 318.682 380.032 318.682C379.378 318.682 378.767 318.856 378.199 319.204C377.638 319.552 377.184 320.035 376.835 320.653C376.495 321.263 376.324 321.97 376.324 322.773V333H373.81Z" fill="white"/>
<path d="M334.746 535H331.976L339.987 513.182H342.715L350.726 535H347.956L341.436 516.634H341.266L334.746 535ZM335.769 526.477H346.933V528.821H335.769V526.477ZM356.298 513.182V535H353.784V513.182H356.298ZM368.19 518.636V520.767H359.369V518.636H368.19ZM362.011 535V516.378C362.011 515.44 362.231 514.659 362.671 514.034C363.112 513.409 363.683 512.94 364.386 512.628C365.089 512.315 365.832 512.159 366.613 512.159C367.231 512.159 367.735 512.209 368.126 512.308C368.516 512.408 368.808 512.5 368.999 512.585L368.275 514.759C368.147 514.716 367.969 514.663 367.742 514.599C367.522 514.535 367.231 514.503 366.869 514.503C366.038 514.503 365.438 514.712 365.068 515.131C364.706 515.55 364.525 516.165 364.525 516.974V535H362.011ZM374.227 525.156V535H371.713V513.182H374.227V521.193H374.441C374.824 520.348 375.399 519.677 376.166 519.18C376.941 518.675 377.97 518.423 379.256 518.423C380.371 518.423 381.347 518.647 382.186 519.094C383.024 519.535 383.673 520.213 384.135 521.129C384.604 522.038 384.838 523.196 384.838 524.602V535H382.324V524.773C382.324 523.473 381.987 522.468 381.312 521.758C380.644 521.04 379.718 520.682 378.531 520.682C377.708 520.682 376.969 520.856 376.316 521.204C375.669 521.552 375.158 522.06 374.781 522.727C374.412 523.395 374.227 524.205 374.227 525.156ZM396.299 535.341C394.722 535.341 393.362 534.993 392.218 534.297C391.082 533.594 390.205 532.614 389.587 531.357C388.976 530.092 388.671 528.622 388.671 526.946C388.671 525.27 388.976 523.793 389.587 522.514C390.205 521.229 391.064 520.227 392.165 519.51C393.273 518.786 394.566 518.423 396.043 518.423C396.895 518.423 397.737 518.565 398.568 518.849C399.399 519.134 400.155 519.595 400.837 520.234C401.519 520.866 402.062 521.705 402.467 522.749C402.872 523.793 403.074 525.078 403.074 526.605V527.67H390.461V525.497H400.517C400.517 524.574 400.333 523.75 399.963 523.026C399.601 522.301 399.083 521.729 398.408 521.31C397.74 520.891 396.952 520.682 396.043 520.682C395.042 520.682 394.175 520.93 393.444 521.428C392.719 521.918 392.162 522.557 391.771 523.345C391.38 524.134 391.185 524.979 391.185 525.881V527.33C391.185 528.565 391.398 529.613 391.824 530.472C392.257 531.325 392.858 531.974 393.625 532.422C394.392 532.862 395.283 533.082 396.299 533.082C396.959 533.082 397.556 532.99 398.088 532.805C398.628 532.614 399.093 532.33 399.484 531.953C399.875 531.57 400.176 531.094 400.39 530.526L402.819 531.207C402.563 532.031 402.133 532.756 401.529 533.381C400.926 533.999 400.18 534.482 399.292 534.83C398.404 535.17 397.407 535.341 396.299 535.341ZM406.899 535V518.636H409.413V535H406.899ZM408.177 515.909C407.687 515.909 407.265 515.742 406.909 515.408C406.561 515.075 406.387 514.673 406.387 514.205C406.387 513.736 406.561 513.335 406.909 513.001C407.265 512.667 407.687 512.5 408.177 512.5C408.667 512.5 409.086 512.667 409.434 513.001C409.789 513.335 409.967 513.736 409.967 514.205C409.967 514.673 409.789 515.075 409.434 515.408C409.086 515.742 408.667 515.909 408.177 515.909ZM414.018 535V518.636H416.447V521.193H416.66C417.001 520.32 417.551 519.641 418.311 519.158C419.071 518.668 419.984 518.423 421.049 518.423C422.129 518.423 423.027 518.668 423.744 519.158C424.469 519.641 425.034 520.32 425.438 521.193H425.609C426.028 520.348 426.656 519.677 427.494 519.18C428.333 518.675 429.338 518.423 430.509 518.423C431.972 518.423 433.169 518.881 434.1 519.798C435.03 520.707 435.495 522.124 435.495 524.048V535H432.981V524.048C432.981 522.841 432.651 521.978 431.99 521.46C431.33 520.941 430.552 520.682 429.657 520.682C428.507 520.682 427.615 521.03 426.983 521.726C426.351 522.415 426.035 523.288 426.035 524.347V535H423.478V523.793C423.478 522.862 423.176 522.113 422.573 521.545C421.969 520.969 421.191 520.682 420.24 520.682C419.586 520.682 418.975 520.856 418.407 521.204C417.846 521.552 417.392 522.035 417.044 522.653C416.703 523.263 416.532 523.97 416.532 524.773V535H414.018Z" fill="white"/>
<path d="M387.124 90.1818H390.278L397.693 108.293H397.948L405.363 90.1818H408.517V112H406.045V95.4233H405.832L399.014 112H396.627L389.809 95.4233H389.596V112H387.124V90.1818ZM423.786 105.31V95.6364H426.3V112H423.786V109.23H423.615C423.232 110.061 422.635 110.768 421.825 111.35C421.016 111.925 419.993 112.213 418.757 112.213C417.734 112.213 416.825 111.989 416.03 111.542C415.234 111.087 414.609 110.406 414.155 109.496C413.7 108.58 413.473 107.426 413.473 106.034V95.6364H415.987V105.864C415.987 107.057 416.321 108.009 416.989 108.719C417.663 109.429 418.523 109.784 419.567 109.784C420.192 109.784 420.827 109.624 421.474 109.305C422.127 108.985 422.674 108.495 423.114 107.835C423.562 107.174 423.786 106.332 423.786 105.31ZM442.496 99.3011L440.237 99.9403C440.095 99.5639 439.885 99.1982 439.608 98.843C439.339 98.4808 438.969 98.1825 438.501 97.9482C438.032 97.7138 437.432 97.5966 436.7 97.5966C435.699 97.5966 434.864 97.8274 434.197 98.2891C433.536 98.7436 433.206 99.3224 433.206 100.026C433.206 100.651 433.433 101.144 433.888 101.506C434.342 101.869 435.052 102.17 436.018 102.412L438.447 103.009C439.91 103.364 441.001 103.907 441.718 104.638C442.435 105.363 442.794 106.297 442.794 107.44C442.794 108.378 442.524 109.216 441.984 109.955C441.452 110.693 440.706 111.276 439.747 111.702C438.788 112.128 437.673 112.341 436.402 112.341C434.733 112.341 433.351 111.979 432.258 111.254C431.164 110.53 430.471 109.472 430.18 108.08L432.567 107.483C432.794 108.364 433.224 109.024 433.856 109.464C434.495 109.905 435.329 110.125 436.359 110.125C437.531 110.125 438.461 109.876 439.15 109.379C439.846 108.875 440.194 108.271 440.194 107.568C440.194 107 439.996 106.524 439.598 106.141C439.2 105.75 438.589 105.459 437.765 105.267L435.038 104.628C433.54 104.273 432.439 103.722 431.736 102.977C431.04 102.224 430.692 101.283 430.692 100.153C430.692 99.2301 430.951 98.4134 431.469 97.7031C431.995 96.9929 432.709 96.4354 433.611 96.0305C434.52 95.6257 435.55 95.4233 436.7 95.4233C438.319 95.4233 439.591 95.7784 440.514 96.4886C441.444 97.1989 442.105 98.1364 442.496 99.3011ZM446.578 118.136V95.6364H449.007V98.2358H449.306C449.49 97.9517 449.746 97.5895 450.073 97.1491C450.407 96.7017 450.882 96.304 451.5 95.956C452.125 95.6009 452.971 95.4233 454.036 95.4233C455.414 95.4233 456.628 95.7678 457.679 96.4567C458.73 97.1456 459.551 98.1222 460.14 99.3864C460.73 100.651 461.025 102.142 461.025 103.861C461.025 105.594 460.73 107.096 460.14 108.367C459.551 109.631 458.734 110.612 457.69 111.308C456.646 111.996 455.442 112.341 454.078 112.341C453.027 112.341 452.186 112.167 451.554 111.819C450.922 111.464 450.435 111.062 450.094 110.615C449.753 110.161 449.49 109.784 449.306 109.486H449.093V118.136H446.578ZM449.05 103.818C449.05 105.054 449.231 106.144 449.593 107.089C449.956 108.026 450.485 108.761 451.181 109.294C451.877 109.82 452.729 110.082 453.738 110.082C454.789 110.082 455.666 109.805 456.369 109.251C457.079 108.69 457.612 107.937 457.967 106.993C458.329 106.041 458.51 104.983 458.51 103.818C458.51 102.668 458.333 101.631 457.978 100.707C457.63 99.777 457.1 99.0419 456.39 98.5021C455.687 97.9553 454.803 97.6818 453.738 97.6818C452.715 97.6818 451.855 97.9411 451.159 98.4595C450.463 98.9709 449.938 99.6882 449.583 100.612C449.228 101.528 449.05 102.597 449.05 103.818ZM471.721 112.341C470.144 112.341 468.784 111.993 467.64 111.297C466.504 110.594 465.627 109.614 465.009 108.357C464.398 107.092 464.093 105.622 464.093 103.946C464.093 102.27 464.398 100.793 465.009 99.5142C465.627 98.2287 466.486 97.2273 467.587 96.5099C468.695 95.7855 469.988 95.4233 471.465 95.4233C472.317 95.4233 473.159 95.5653 473.99 95.8494C474.821 96.1335 475.577 96.5952 476.259 97.2344C476.941 97.8665 477.484 98.7045 477.889 99.7486C478.294 100.793 478.496 102.078 478.496 103.605V104.67H465.882V102.497H475.939C475.939 101.574 475.755 100.75 475.385 100.026C475.023 99.3011 474.505 98.7294 473.83 98.3104C473.162 97.8913 472.374 97.6818 471.465 97.6818C470.463 97.6818 469.597 97.9304 468.865 98.4276C468.141 98.9176 467.583 99.5568 467.193 100.345C466.802 101.134 466.607 101.979 466.607 102.881V104.33C466.607 105.565 466.82 106.613 467.246 107.472C467.679 108.325 468.279 108.974 469.047 109.422C469.814 109.862 470.705 110.082 471.721 110.082C472.381 110.082 472.978 109.99 473.51 109.805C474.05 109.614 474.515 109.33 474.906 108.953C475.297 108.57 475.598 108.094 475.811 107.526L478.24 108.207C477.985 109.031 477.555 109.756 476.951 110.381C476.348 110.999 475.602 111.482 474.714 111.83C473.826 112.17 472.828 112.341 471.721 112.341ZM484.835 90.1818V112H482.321V90.1818H484.835ZM491.954 102.156V112H489.44V90.1818H491.954V98.1932H492.167C492.551 97.348 493.126 96.6768 493.893 96.1797C494.667 95.6754 495.697 95.4233 496.982 95.4233C498.097 95.4233 499.074 95.647 499.912 96.0945C500.75 96.5348 501.4 97.2131 501.862 98.1293C502.33 99.0384 502.565 100.196 502.565 101.602V112H500.051V101.773C500.051 100.473 499.713 99.468 499.039 98.7578C498.371 98.0405 497.444 97.6818 496.258 97.6818C495.434 97.6818 494.695 97.8558 494.042 98.2038C493.396 98.5518 492.884 99.0597 492.508 99.7273C492.139 100.395 491.954 101.205 491.954 102.156ZM514.025 112.341C512.449 112.341 511.088 111.993 509.945 111.297C508.809 110.594 507.931 109.614 507.314 108.357C506.703 107.092 506.397 105.622 506.397 103.946C506.397 102.27 506.703 100.793 507.314 99.5142C507.931 98.2287 508.791 97.2273 509.892 96.5099C511 95.7855 512.292 95.4233 513.77 95.4233C514.622 95.4233 515.463 95.5653 516.294 95.8494C517.125 96.1335 517.882 96.5952 518.564 97.2344C519.245 97.8665 519.789 98.7045 520.194 99.7486C520.598 100.793 520.801 102.078 520.801 103.605V104.67H508.187V102.497H518.244C518.244 101.574 518.059 100.75 517.69 100.026C517.328 99.3011 516.809 98.7294 516.135 98.3104C515.467 97.8913 514.679 97.6818 513.77 97.6818C512.768 97.6818 511.902 97.9304 511.17 98.4276C510.446 98.9176 509.888 99.5568 509.498 100.345C509.107 101.134 508.912 101.979 508.912 102.881V104.33C508.912 105.565 509.125 106.613 509.551 107.472C509.984 108.325 510.584 108.974 511.351 109.422C512.118 109.862 513.01 110.082 514.025 110.082C514.686 110.082 515.282 109.99 515.815 109.805C516.355 109.614 516.82 109.33 517.211 108.953C517.601 108.57 517.903 108.094 518.116 107.526L520.545 108.207C520.289 109.031 519.86 109.756 519.256 110.381C518.652 110.999 517.907 111.482 517.019 111.83C516.131 112.17 515.133 112.341 514.025 112.341ZM524.625 112V95.6364H527.14V112H524.625ZM525.904 92.9091C525.414 92.9091 524.991 92.7422 524.636 92.4084C524.288 92.0746 524.114 91.6733 524.114 91.2045C524.114 90.7358 524.288 90.3345 524.636 90.0007C524.991 89.6669 525.414 89.5 525.904 89.5C526.394 89.5 526.813 89.6669 527.161 90.0007C527.516 90.3345 527.694 90.7358 527.694 91.2045C527.694 91.6733 527.516 92.0746 527.161 92.4084C526.813 92.7422 526.394 92.9091 525.904 92.9091ZM531.744 112V95.6364H534.173V98.1932H534.387C534.727 97.3196 535.278 96.6413 536.038 96.1584C536.798 95.6683 537.71 95.4233 538.776 95.4233C539.855 95.4233 540.754 95.6683 541.471 96.1584C542.195 96.6413 542.76 97.3196 543.165 98.1932H543.335C543.754 97.348 544.383 96.6768 545.221 96.1797C546.059 95.6754 547.064 95.4233 548.236 95.4233C549.699 95.4233 550.896 95.8814 551.826 96.7976C552.757 97.7067 553.222 99.1236 553.222 101.048V112H550.708V101.048C550.708 99.8409 550.377 98.978 549.717 98.4595C549.056 97.9411 548.279 97.6818 547.384 97.6818C546.233 97.6818 545.342 98.0298 544.71 98.7259C544.078 99.4148 543.762 100.288 543.762 101.347V112H541.205V100.793C541.205 99.8622 540.903 99.1129 540.299 98.5447C539.695 97.9695 538.918 97.6818 537.966 97.6818C537.313 97.6818 536.702 97.8558 536.134 98.2038C535.573 98.5518 535.118 99.0348 534.77 99.6527C534.429 100.263 534.259 100.97 534.259 101.773V112H531.744Z" fill="white"/>
<path d="M94 289C35.9342 301 7.13924 304 0 304" stroke="white" stroke-width="10" stroke-linecap="round"/>
<path d="M291 418C242.382 516.696 213.911 562.226 205.752 572.655" stroke="white" stroke-width="10"/>
</g>
<path d="M305.548 3C140.912 334.074 128.872 202.652 89.1139 301.739C69.9429 349.517 303.786 430 362.424 430C421.061 430 550.739 345.174 555.813 321.043C560.887 296.912 461.655 245.273 379.901 224.038C298.146 202.803 226.851 174.996 224 161C221.719 149.803 275.091 68.7965 305.548 3Z" stroke="white" stroke-width="10"/>
<defs>
<clipPath id="clip0_814_534">
<rect width="564" height="564" fill="white" transform="translate(0 3)"/>
</clipPath>
</defs>
</svg>
