<?xml version="1.0" encoding="UTF-8"?><svg id="Layer_1" xmlns="http://www.w3.org/2000/svg" viewBox="0 0 92 212.35"><defs><style>.cls-1{fill:#35324f;}.cls-2{fill:#202035;stroke:#35324f;stroke-miterlimit:10;stroke-width:2px;}</style></defs><polygon class="cls-2" points="91 1.68 1 50.68 1 210.68 91 162.68 91 1.68"/><path class="cls-1" d="M69.45,113.57l-.15-7.57c-.74-2.82-10.53-2.82-10.53-2.82h-7.42c5.49-2.82,10.98-6.08,10.68-8.16s-5.04-3.71-8.46-4.45-2.67-2.52-2.67-2.52c0,0,.59-2.37,2.08-3.26s1.19-1.48,1.19-1.48h-12.02l-16.76,21.66-4.3,.45c-.89,.89-.74,5.34-.74,5.34-.74,1.34-2.08,1.48-3.26,1.63s-.89,3.86-.89,3.86l1.19,.59v10.09l1.19,.45,1.19-.15v-9.35l15.28,6.68-.15,11.13,1.19,.59,1.63-.3,.15-11.72s14.09-1.78,16.02-1.93,1.48-1.63,1.48-1.63c1.19-.15,.89-1.19,.89-1.19,4.6,.15,3.86-3.56,3.86-3.56l4.3-.45-.15,13.2,1.34,.45,1.48-.15v-13.8c2.97-.3,2.37-1.63,2.37-1.63Zm-42.94,4.82l-2.08-.89s-.3-.89,.45-.89l1.78,.74s.74,.59-.15,1.04Zm33.6-11.05v2.08l-19.43,2.23-12.02-3.86,18.84-1.48c-.74-2.23-.74-6.68-.74-6.68l-3.86-12.02s-.3-.74,.3-.89,.74,.74,.74,.74l6.23,18.69s9.49-.3,11.72-.3,3.12,.89,3.12,.89l-4.9,.59Z"/></svg>