<svg width="13" height="17" viewBox="0 0 13 17" fill="none" xmlns="http://www.w3.org/2000/svg">
<path d="M12.8576 11.6315C12.756 12.5508 12.1375 13.1347 11.2473 13.4136C10.4653 13.6563 9.8039 13.7721 9.10243 13.3331C8.2438 12.7707 8.1037 11.6851 8.72317 10.9157C9.21457 10.3205 9.98163 10.1192 11.1286 9.77315C11.3201 9.71377 11.4843 9.64773 11.6087 9.4706C11.7894 9.21059 11.7363 9.31958 11.1137 4.12737C11.0698 3.76186 10.8782 3.68221 10.5107 3.79248C10.2486 3.87026 4.58584 5.64834 4.58584 5.64834C4.26158 5.76005 4.16888 5.87048 4.21389 6.24578C5.13232 13.9052 5.12595 13.5484 5.06951 14.0716C5.00367 14.682 4.69177 15.1729 4.23851 15.4789C3.72664 15.8481 2.75058 16.1009 2.21016 16.0664C0.768633 15.9711 0.0773132 14.4021 0.921597 13.3541C1.413 12.7589 2.18006 12.5576 3.327 12.2116C3.5185 12.1522 3.68272 12.0861 3.80714 11.909C4.09175 11.4942 2.86175 3.52785 2.91949 3.07071C2.92525 2.89788 2.97983 2.74568 3.10072 2.62194C3.22409 2.49128 3.46429 2.39627 3.5165 2.39001C10.0245 0.345058 10.818 0.0877084 10.9322 0.0740121C11.3044 0.00290219 11.5464 0.198992 11.5918 0.577557C12.9464 11.8195 12.9034 11.2122 12.8576 11.6315Z" fill="#202033"/>
</svg>
