<svg width="165" height="73" viewBox="0 0 165 73" fill="none" xmlns="http://www.w3.org/2000/svg">
<mask id="path-1-inside-1_251_247" fill="white">
<path fill-rule="evenodd" clip-rule="evenodd" d="M0 0H165V18.8498C164.909 18.8481 164.818 18.8472 164.726 18.8472C156.098 18.8472 149.103 26.6049 149.103 36.1744C149.103 45.744 156.098 53.5017 164.726 53.5017C164.818 53.5017 164.909 53.5008 165 53.4991V72.9568H0V53.4991C0.0911925 53.5008 0.182575 53.5017 0.274142 53.5017C8.90244 53.5017 15.8971 45.744 15.8971 36.1744C15.8971 26.6049 8.90244 18.8472 0.274142 18.8472C0.182575 18.8472 0.0911925 18.8481 0 18.8498V0Z"/>
</mask>
<path fill-rule="evenodd" clip-rule="evenodd" d="M0 0H165V18.8498C164.909 18.8481 164.818 18.8472 164.726 18.8472C156.098 18.8472 149.103 26.6049 149.103 36.1744C149.103 45.744 156.098 53.5017 164.726 53.5017C164.818 53.5017 164.909 53.5008 165 53.4991V72.9568H0V53.4991C0.0911925 53.5008 0.182575 53.5017 0.274142 53.5017C8.90244 53.5017 15.8971 45.744 15.8971 36.1744C15.8971 26.6049 8.90244 18.8472 0.274142 18.8472C0.182575 18.8472 0.0911925 18.8481 0 18.8498V0Z" fill="white"/>
<path d="M165 0H166V-1H165V0ZM0 0V-1H-1V0H0ZM165 18.8498L164.981 19.8496L166 19.869V18.8498H165ZM165 53.4991H166V52.4798L164.981 52.4992L165 53.4991ZM165 72.9568V73.9568H166V72.9568H165ZM0 72.9568H-1V73.9568H0V72.9568ZM0 53.4991L0.0190716 52.4992L-1 52.4798V53.4991H0ZM0 18.8498H-1V19.8691L0.0190716 19.8496L0 18.8498ZM165 -1H0V1H165V-1ZM166 18.8498V0H164V18.8498H166ZM164.726 19.8472C164.811 19.8472 164.896 19.848 164.981 19.8496L165.019 17.85C164.922 17.8481 164.824 17.8472 164.726 17.8472V19.8472ZM150.103 36.1744C150.103 27.0572 156.745 19.8472 164.726 19.8472V17.8472C155.451 17.8472 148.103 26.1525 148.103 36.1744H150.103ZM164.726 52.5017C156.745 52.5017 150.103 45.2916 150.103 36.1744H148.103C148.103 46.1964 155.451 54.5017 164.726 54.5017V52.5017ZM164.981 52.4992C164.896 52.5009 164.811 52.5017 164.726 52.5017V54.5017C164.824 54.5017 164.922 54.5007 165.019 54.4989L164.981 52.4992ZM166 72.9568V53.4991H164V72.9568H166ZM0 73.9568H165V71.9568H0V73.9568ZM-1 53.4991V72.9568H1V53.4991H-1ZM0.274142 52.5017C0.188936 52.5017 0.10391 52.5009 0.0190716 52.4992L-0.0190716 54.4989C0.0784747 54.5007 0.176215 54.5017 0.274142 54.5017V52.5017ZM14.8971 36.1744C14.8971 45.2916 8.25527 52.5017 0.274142 52.5017V54.5017C9.54961 54.5017 16.8971 46.1964 16.8971 36.1744H14.8971ZM0.274142 19.8472C8.25527 19.8472 14.8971 27.0572 14.8971 36.1744H16.8971C16.8971 26.1525 9.54961 17.8472 0.274142 17.8472V19.8472ZM0.0190716 19.8496C0.10391 19.848 0.188936 19.8472 0.274142 19.8472V17.8472C0.176215 17.8472 0.0784747 17.8481 -0.0190716 17.85L0.0190716 19.8496ZM-1 0V18.8498H1V0H-1Z" fill="black" mask="url(#path-1-inside-1_251_247)"/>
</svg>
