<?xml version="1.0" encoding="UTF-8"?><svg id="Layer_1" xmlns="http://www.w3.org/2000/svg" viewBox="0 0 64 69"><defs><style>.cls-1{fill:#F39B13;}</style></defs><path class="cls-1" d="M47.25,22.93c8.09-4.77,16.7-2.7,16.7-2.7C55.05,7.54,44.18,.7,44.18,.7c2.3,8.27-1.94,17.64-1.94,17.64l.59,.57-14.65,14.76-2.07-2.01s.87-.59-.02-1.46-2.31,1.2-2.31,1.2c0,0-1.73,1.48-.85,2.05s1.46-.02,1.46-.02l2.07,2.3-1.72,1.77-2.36-2.3s.86-.89-.02-1.46-2.31,1.2-2.31,1.2c0,0-1.72,1.77-.84,2.34s1.46-.02,1.46-.02l2.07,2.3-1.43,1.77-2.36-2.3c.28-.59,.28-1.17-.31-1.45s-1.16,.31-2.02,1.19-1.73,1.48-1.14,2.05,1.46,.27,1.46,.27l2.36,2.01L2.92,59.93c-1.47-.85-2.03,.9-2.03,.9l5.02,4.88,.87-.59c.57-.88-.61-1.74-.61-1.74l6.03-6.2c.32,2.32,1.52,4.35,1.52,4.35,0,0,3.56,5.19,9.97,5.1,6.4-.09,8.97-4.2,8.97-4.2l9.47-10.03c10.06-9.75,9.75-11.2,10.29-14.12,.54-2.92-.37-6.11-2.45-8.7s-7.04-3.69-7.04-3.69l3.74-3.54,.59,.57Zm-4.36,21.6l-6.32,6.49-4.88,5.02s-.87,.59-2.03,.61c0,0-3.5-.24-3.54-3.45-.04-3.2,2.56-4.69,5.71-7.94,3.16-3.25,5.15-6.48,7.77-6.51s3.82,2.86,3.82,2.86c0,0,.32,2.03-.54,2.92Zm2.16-12.55c4.12,3.15,1.86,8.42,1,9.3,0,0-.94-5.23-6.48-5.15,0,0-2.34-.55-6.35,3.87-4.02,4.42-6.89,7.08-6.89,7.08,0,0-3.17,2.66-3.41,5.87-.25,3.21,2.42,6.37,5.62,6.33,0,0-1.71,2.64-5.21,2.4s-6.44-2.82-6.5-6.61,7.72-10.3,7.72-10.3l12.06-12.39s4.32-3.55,8.44-.41Z"/></svg>